Patient4_TMGait_0pt3_02_right_12_GRF.mot
version=1
nRows=39
nColumns=19
inDegrees=no
endheader
time	F1x	F1y	F1z	M1x	M1y	M1z	F2x	F2y	F2z	M2x	M2y	M2z	EC1x	EC1y	EC1z	EC2x	EC2y	EC2z
22.43	-5.5963	674.4511	34.1029	-252.8691	-35.0685	669.454	4.576	116.9489	-0.69186	42.5497	-4.5767	91.3029	-0.0592	0.0182	-0.0073	-0.0462	0.0165	0.9585
22.4496	-4.7629	703.5509	38.5724	-263.7273	-38.7357	694.7783	4.1036	106.1802	-1.0495	38.3824	-3.0299	83.2174	-0.0592	0.0182	-0.0073	-0.0462	0.0165	0.9585
22.4691	-3.4266	737.0409	43.9296	-276.1086	-42.9726	723.6654	3.1887	92.8728	-1.3641	33.3671	-1.52	73.0812	-0.0592	0.0182	-0.0073	-0.0462	0.0165	0.9585
22.4887	-1.6523	771.9995	49.8683	-288.9018	-47.5258	753.4297	1.941	77.7745	-1.582	27.7896	-0.18629	61.469	-0.0592	0.0182	-0.0073	-0.0462	0.0165	0.9585
22.5083	0.41935	805.1058	55.9995	-300.8695	-52.1026	781.0498	0.5882	61.915	-1.6557	22.0161	0.85128	49.2024	-0.0592	0.0182	-0.0073	-0.0462	0.0165	0.9585
22.5279	2.6377	833.2745	61.9029	-310.885	-56.3826	803.7413	-0.57951	46.4457	-1.5656	16.4447	1.5057	37.2085	-0.0592	0.0182	-0.0073	-0.0462	0.0165	0.9585
22.5474	4.8875	854.0801	67.1866	-318.0855	-60.0503	819.3327	-1.3038	32.4892	-1.3301	11.4568	1.7453	26.3823	-0.0592	0.0182	-0.0073	-0.0462	0.0165	0.9585
22.567	7.1001	865.9882	71.5274	-321.9493	-62.829	826.479	-1.5135	20.9517	-1.0078	7.3566	1.6355	17.4301	-0.0592	0.0182	-0.0073	-0.0462	0.0165	0.9585
22.5866	9.2407	868.4076	74.7001	-322.3067	-64.5143	824.7054	-1.3815	12.2385	-0.66792	4.2744	1.3255	10.6541	-0.0592	0.0182	-0.0073	-0.0462	0.0165	0.9585
22.6061	11.3083	861.6573	76.6137	-319.3182	-65.0145	814.3644	-1.0728	6.1412	-0.35151	2.128	0.93187	5.8687	-0.0592	0.0182	-0.0073	-0.0462	0.0165	0.9585
22.6257	13.3231	846.8822	77.3128	-313.4396	-64.3616	796.555	-0.70211	2.1025	-0.071133	0.71442	0.52202	2.6101	-0.0592	0.0182	-0.0073	-0.0462	0.0165	0.9585
22.6453	15.3	825.8717	76.9209	-305.3568	-62.6734	772.9541	-0.33975	-0.55394	0.17646	-0.20959	0.12846	0.32367	-0.0592	0.0182	-0.0073	-0.0462	0.0165	0.9585
22.6649	17.2546	800.855	75.6044	-295.912	-60.1163	745.6301	-0.018655	-2.4755	0.39935	-0.87496	-0.237	-1.5196	-0.0592	0.0182	-0.0073	-0.0462	0.0165	0.9585
22.6844	19.2246	774.3112	73.5689	-286.03	-56.8848	716.8586	0.25217	-4.1775	0.60115	-1.4652	-0.56828	-3.3359	-0.0592	0.0182	-0.0073	-0.0462	0.0165	0.9585
22.704	21.2744	748.7569	71.053	-276.6368	-53.1858	688.9185	0.46681	-5.9707	0.77617	-2.0914	-0.85312	-5.3603	-0.0592	0.0182	-0.0073	-0.0462	0.0165	0.9585
22.7236	23.49	726.4687	68.335	-268.5595	-49.2493	663.8434	0.61435	-7.9009	0.90034	-2.7695	-1.0616	-7.5908	-0.0592	0.0182	-0.0073	-0.0462	0.0165	0.9585
22.7431	25.938	709.1808	65.7166	-262.4177	-45.3245	643.1647	0.6749	-9.68	0.9195	-3.3963	-1.1314	-9.6986	-0.0592	0.0182	-0.0073	-0.0462	0.0165	0.9585
22.7627	28.6353	697.8115	63.4696	-258.5261	-41.6461	627.6784	0.61591	-10.6135	0.74916	-3.7248	-0.96202	-10.9403	-0.0592	0.0182	-0.0073	-0.0462	0.0165	0.9585
22.7823	31.5708	692.3304	61.7658	-256.846	-38.3675	617.3424	0.39024	-9.5367	0.27576	-3.343	-0.41331	-10.0908	-0.0592	0.0182	-0.0073	-0.0462	0.0165	0.9585
22.8019	34.6946	691.6737	60.6477	-256.953	-35.5417	611.2224	-0.064613	-4.7838	-0.63845	-1.6632	0.69021	-5.4055	-0.0592	0.0182	-0.0073	-0.0462	0.0165	0.9585
22.8214	37.8991	693.7042	60.0456	-258.0196	-33.1499	607.4819	-0.81997	5.7591	-2.1384	2.0607	2.5381	5.338	-0.0592	0.0182	-0.0073	-0.0462	0.0165	0.9585
22.841	41.0594	695.3525	59.7942	-258.8725	-31.1063	603.5226	-1.9376	24.4624	-4.342	8.6661	5.2912	24.6508	-0.0592	0.0182	-0.0073	-0.0462	0.0165	0.9585
22.8606	44.0533	693.0179	59.6574	-258.1469	-29.2742	596.3552	-3.4504	53.5584	-7.2848	18.9424	9.0178	54.9287	-0.0592	0.0182	-0.0073	-0.0462	0.0165	0.9585
22.8801	46.7361	683.1972	59.3615	-254.5225	-27.5031	583.1493	-5.4955	94.6182	-10.8765	33.4466	13.695	97.8953	-0.0592	0.0182	-0.0073	-0.0462	0.0165	0.9585
22.8997	48.9063	663.0624	58.6171	-246.9455	-25.66	561.7198	-8.7022	147.9359	-14.8958	52.2848	19.3265	153.9585	-0.0592	0.0182	-0.0073	-0.0462	0.0165	0.9585
22.9193	50.3036	630.8294	57.129	-234.7732	-23.6335	530.8048	-14.1556	211.7515	-19.0253	74.8326	25.952	221.3872	-0.0592	0.0182	-0.0073	-0.0462	0.0165	0.9585
22.9389	50.6749	586.0083	54.6487	-217.8648	-21.3438	490.2032	-22.0575	282.1913	-23.1578	99.6828	33.514	296.1749	-0.0592	0.0182	-0.0073	-0.0462	0.0165	0.9585
22.9584	49.8941	529.6393	51.0775	-196.6571	-18.7724	440.894	-31.5666	354.3973	-27.631	125.0328	42.0341	373.1411	-0.0592	0.0182	-0.0073	-0.0462	0.0165	0.9585
22.978	48.0013	464.3025	46.5382	-172.1524	-15.9948	385.0107	-41.4482	424.4893	-32.4452	149.4538	51.0381	448.0237	-0.0592	0.0182	-0.0073	-0.0462	0.0165	0.9585
22.9976	45.1315	393.5925	41.2905	-145.7148	-13.1427	325.438	-50.5179	489.6042	-37.3594	171.9267	59.8116	517.5536	-0.0592	0.0182	-0.0073	-0.0462	0.0165	0.9585
23.0171	41.4667	321.5108	35.5869	-118.844	-10.3216	265.3402	-57.8509	547.8372	-42.0945	191.7991	67.6909	579.4115	-0.0592	0.0182	-0.0073	-0.0462	0.0165	0.9585
23.0367	37.2225	251.9946	29.6643	-93.0002	-7.6125	207.7963	-62.8524	598.2257	-46.512	208.7619	74.2869	632.2793	-0.0592	0.0182	-0.0073	-0.0462	0.0165	0.9585
23.0563	32.6411	188.5278	23.7795	-69.4619	-5.1013	155.5151	-65.3179	640.5845	-50.5335	222.7965	79.4291	675.7358	-0.0592	0.0182	-0.0073	-0.0462	0.0165	0.9585
23.0759	27.9747	133.763	18.2235	-49.1922	-2.8929	110.5376	-65.4206	675.4497	-54.0115	234.155	83.0316	710.2298	-0.0592	0.0182	-0.0073	-0.0462	0.0165	0.9585
23.0954	23.4361	89.2007	13.3093	-32.7251	-1.1163	73.9906	-63.5689	703.911	-56.7817	243.281	85.0879	736.9206	-0.0592	0.0182	-0.0073	-0.0462	0.0165	0.9585
23.115	19.1381	55.0406	9.2608	-20.1194	0.1302	45.9751	-60.2542	727.1859	-58.7835	250.6348	85.7294	757.2296	-0.0592	0.0182	-0.0073	-0.0462	0.0165	0.9585
23.1346	15.0818	30.3826	6.122	-11.0361	0.83589	25.7283	-55.9261	746.1455	-60.1141	256.5127	85.2307	772.3083	-0.0592	0.0182	-0.0073	-0.0462	0.0165	0.9585
23.1541	11.2631	13.704	3.7944	-4.9093	1.0846	12.0029	-50.9557	761.0822	-60.9905	260.9697	83.9541	782.7702	-0.0592	0.0182	-0.0073	-0.0462	0.0165	0.9585
23.1737	7.7781	3.3028	2.1197	-1.1065	1.0281	3.4066	-45.6399	771.7254	-61.6814	263.8431	82.2804	788.6762	-0.0592	0.0182	-0.0073	-0.0462	0.0165	0.9585
